<mxfile host="app.diagrams.net" modified="2023-09-11T15:52:11.103Z" agent="Mozilla/5.0 (Windows NT 10.0; Win64; x64) AppleWebKit/537.36 (KHTML, like Gecko) Chrome/116.0.0.0 Safari/537.36 Edg/116.0.1938.76" etag="V95wrUJfSP4vNgDsSdCZ" version="21.7.2" type="github">
  <diagram name="Page-1" id="n79Q4a0UlwfNvP22XIBk">
    <mxGraphModel dx="2019" dy="1148" grid="1" gridSize="10" guides="1" tooltips="1" connect="1" arrows="1" fold="1" page="1" pageScale="1" pageWidth="850" pageHeight="1100" math="0" shadow="0">
      <root>
        <mxCell id="0" />
        <mxCell id="1" parent="0" />
        <mxCell id="CiKUPNfviH01VdCJl_I1-1" value="Managed Gateway" style="rounded=1;whiteSpace=wrap;html=1;verticalAlign=top;" vertex="1" parent="1">
          <mxGeometry x="250" y="110" width="400" height="460" as="geometry" />
        </mxCell>
        <mxCell id="CiKUPNfviH01VdCJl_I1-2" value="Genesis Inbound&lt;br&gt;&lt;br&gt;/opt/cap_prod_data/genesis/in/int_072/" style="rounded=1;whiteSpace=wrap;html=1;" vertex="1" parent="1">
          <mxGeometry x="277.5" y="280" width="345" height="50" as="geometry" />
        </mxCell>
        <mxCell id="CiKUPNfviH01VdCJl_I1-3" value="GLOS Inbound&lt;br&gt;&lt;br&gt;/opt/cap_prod_data/glos/in/int_230/" style="rounded=1;whiteSpace=wrap;html=1;" vertex="1" parent="1">
          <mxGeometry x="277.5" y="420" width="345" height="50" as="geometry" />
        </mxCell>
        <mxCell id="CiKUPNfviH01VdCJl_I1-4" value="SITI Agri Inbound&lt;br&gt;&lt;br&gt;/opt/cap_prod_data/DAX/out/int_539/&lt;br&gt;/opt/cap_prod_data/DAX/out/int_716/&lt;br&gt;/opt/cap_prod_data/DAX/out/int_725/" style="rounded=1;whiteSpace=wrap;html=1;" vertex="1" parent="1">
          <mxGeometry x="277.5" y="180" width="345" height="81" as="geometry" />
        </mxCell>
        <mxCell id="CiKUPNfviH01VdCJl_I1-5" value="Genesis Outbound&lt;br&gt;&lt;br&gt;/opt/cap_prod_data/genesis/out/int_073/" style="rounded=1;whiteSpace=wrap;html=1;" vertex="1" parent="1">
          <mxGeometry x="277.5" y="350" width="345" height="50" as="geometry" />
        </mxCell>
        <mxCell id="CiKUPNfviH01VdCJl_I1-6" value="GLOS Outbound&lt;br&gt;&lt;br&gt;/opt/cap_prod_data/glos/out/int_231/" style="rounded=1;whiteSpace=wrap;html=1;" vertex="1" parent="1">
          <mxGeometry x="277.5" y="490" width="345" height="50" as="geometry" />
        </mxCell>
        <mxCell id="CiKUPNfviH01VdCJl_I1-7" value="Callisto" style="rounded=1;whiteSpace=wrap;html=1;verticalAlign=top;" vertex="1" parent="1">
          <mxGeometry x="250" y="620" width="400" height="350" as="geometry" />
        </mxCell>
        <mxCell id="CiKUPNfviH01VdCJl_I1-8" value="IMPS Inbound&lt;br&gt;&lt;br&gt;/app/DAX_interface/CFI/outbound/" style="rounded=1;whiteSpace=wrap;html=1;" vertex="1" parent="1">
          <mxGeometry x="277.5" y="690" width="345" height="50" as="geometry" />
        </mxCell>
        <mxCell id="CiKUPNfviH01VdCJl_I1-9" value="DPS Inbound&lt;br&gt;&lt;br&gt;/app/DAX_interface/DPS/outbound/" style="rounded=1;whiteSpace=wrap;html=1;" vertex="1" parent="1">
          <mxGeometry x="277.5" y="830" width="345" height="50" as="geometry" />
        </mxCell>
        <mxCell id="CiKUPNfviH01VdCJl_I1-11" value="IMPS Outbound&lt;br&gt;&lt;br&gt;/app/DAX_interface/CFI/inbound/" style="rounded=1;whiteSpace=wrap;html=1;" vertex="1" parent="1">
          <mxGeometry x="277.5" y="760" width="345" height="50" as="geometry" />
        </mxCell>
        <mxCell id="CiKUPNfviH01VdCJl_I1-12" value="DPS Outbound&lt;br&gt;&lt;br&gt;/app/DAX_interface/DPS/inbound" style="rounded=1;whiteSpace=wrap;html=1;" vertex="1" parent="1">
          <mxGeometry x="277.5" y="900" width="345" height="50" as="geometry" />
        </mxCell>
        <mxCell id="CiKUPNfviH01VdCJl_I1-14" value="" style="sketch=0;pointerEvents=1;shadow=0;dashed=0;html=1;strokeColor=none;fillColor=#505050;labelPosition=center;verticalLabelPosition=bottom;verticalAlign=top;outlineConnect=0;align=center;shape=mxgraph.office.services.network_file_share_service;aspect=fixed;" vertex="1" parent="1">
          <mxGeometry x="435" y="140" width="30" height="28.91" as="geometry" />
        </mxCell>
        <mxCell id="CiKUPNfviH01VdCJl_I1-15" value="" style="sketch=0;pointerEvents=1;shadow=0;dashed=0;html=1;strokeColor=none;fillColor=#505050;labelPosition=center;verticalLabelPosition=bottom;verticalAlign=top;outlineConnect=0;align=center;shape=mxgraph.office.services.network_file_share_service;aspect=fixed;" vertex="1" parent="1">
          <mxGeometry x="435" y="650" width="30" height="28.91" as="geometry" />
        </mxCell>
        <mxCell id="CiKUPNfviH01VdCJl_I1-18" style="edgeStyle=orthogonalEdgeStyle;rounded=0;orthogonalLoop=1;jettySize=auto;html=1;" edge="1" parent="1" source="CiKUPNfviH01VdCJl_I1-16" target="CiKUPNfviH01VdCJl_I1-4">
          <mxGeometry relative="1" as="geometry" />
        </mxCell>
        <mxCell id="CiKUPNfviH01VdCJl_I1-21" value="" style="edgeStyle=orthogonalEdgeStyle;rounded=0;orthogonalLoop=1;jettySize=auto;html=1;" edge="1" parent="1" source="CiKUPNfviH01VdCJl_I1-16" target="CiKUPNfviH01VdCJl_I1-20">
          <mxGeometry relative="1" as="geometry" />
        </mxCell>
        <mxCell id="CiKUPNfviH01VdCJl_I1-16" value="File Transfer Tool" style="rounded=1;whiteSpace=wrap;html=1;verticalAlign=top;" vertex="1" parent="1">
          <mxGeometry x="810" y="185.5" width="120" height="70" as="geometry" />
        </mxCell>
        <mxCell id="CiKUPNfviH01VdCJl_I1-17" value="" style="outlineConnect=0;dashed=0;verticalLabelPosition=bottom;verticalAlign=top;align=center;html=1;shape=mxgraph.aws3.android;fillColor=#115193;gradientColor=none;" vertex="1" parent="1">
          <mxGeometry x="855" y="211.5" width="30" height="34" as="geometry" />
        </mxCell>
        <mxCell id="CiKUPNfviH01VdCJl_I1-20" value="Payment Filter Inbound" style="rounded=1;whiteSpace=wrap;html=1;verticalAlign=top;" vertex="1" parent="1">
          <mxGeometry x="1010" y="185.5" width="120" height="70" as="geometry" />
        </mxCell>
        <mxCell id="CiKUPNfviH01VdCJl_I1-22" value="" style="image;aspect=fixed;html=1;points=[];align=center;fontSize=12;image=img/lib/azure2/general/Folder_Blank.svg;" vertex="1" parent="1">
          <mxGeometry x="1055" y="223.14999999999998" width="30" height="24.35" as="geometry" />
        </mxCell>
        <mxCell id="CiKUPNfviH01VdCJl_I1-38" style="edgeStyle=orthogonalEdgeStyle;rounded=0;orthogonalLoop=1;jettySize=auto;html=1;entryX=1;entryY=0.5;entryDx=0;entryDy=0;" edge="1" parent="1" source="CiKUPNfviH01VdCJl_I1-27" target="CiKUPNfviH01VdCJl_I1-2">
          <mxGeometry relative="1" as="geometry" />
        </mxCell>
        <mxCell id="CiKUPNfviH01VdCJl_I1-39" style="edgeStyle=orthogonalEdgeStyle;rounded=0;orthogonalLoop=1;jettySize=auto;html=1;entryX=1;entryY=0.5;entryDx=0;entryDy=0;" edge="1" parent="1" source="CiKUPNfviH01VdCJl_I1-27" target="CiKUPNfviH01VdCJl_I1-5">
          <mxGeometry relative="1" as="geometry" />
        </mxCell>
        <mxCell id="CiKUPNfviH01VdCJl_I1-40" style="edgeStyle=orthogonalEdgeStyle;rounded=0;orthogonalLoop=1;jettySize=auto;html=1;entryX=1;entryY=0.5;entryDx=0;entryDy=0;" edge="1" parent="1" source="CiKUPNfviH01VdCJl_I1-27" target="CiKUPNfviH01VdCJl_I1-3">
          <mxGeometry relative="1" as="geometry" />
        </mxCell>
        <mxCell id="CiKUPNfviH01VdCJl_I1-41" style="edgeStyle=orthogonalEdgeStyle;rounded=0;orthogonalLoop=1;jettySize=auto;html=1;entryX=1;entryY=0.5;entryDx=0;entryDy=0;" edge="1" parent="1" source="CiKUPNfviH01VdCJl_I1-27" target="CiKUPNfviH01VdCJl_I1-6">
          <mxGeometry relative="1" as="geometry" />
        </mxCell>
        <mxCell id="CiKUPNfviH01VdCJl_I1-27" value="BizTalk" style="rounded=1;whiteSpace=wrap;html=1;verticalAlign=top;" vertex="1" parent="1">
          <mxGeometry x="810" y="370" width="120" height="70" as="geometry" />
        </mxCell>
        <mxCell id="CiKUPNfviH01VdCJl_I1-31" value="" style="verticalLabelPosition=bottom;html=1;verticalAlign=top;align=center;strokeColor=none;fillColor=#00BEF2;shape=mxgraph.azure.biztalk_services;aspect=fixed;" vertex="1" parent="1">
          <mxGeometry x="855" y="400" width="30" height="30" as="geometry" />
        </mxCell>
        <mxCell id="CiKUPNfviH01VdCJl_I1-36" style="edgeStyle=orthogonalEdgeStyle;rounded=0;orthogonalLoop=1;jettySize=auto;html=1;entryX=1;entryY=0.5;entryDx=0;entryDy=0;startArrow=classic;startFill=1;" edge="1" parent="1" source="CiKUPNfviH01VdCJl_I1-32" target="CiKUPNfviH01VdCJl_I1-27">
          <mxGeometry relative="1" as="geometry" />
        </mxCell>
        <mxCell id="CiKUPNfviH01VdCJl_I1-32" value="Transformation Layer Inbound" style="rounded=1;whiteSpace=wrap;html=1;verticalAlign=top;" vertex="1" parent="1">
          <mxGeometry x="1010" y="320" width="120" height="70" as="geometry" />
        </mxCell>
        <mxCell id="CiKUPNfviH01VdCJl_I1-33" value="" style="image;aspect=fixed;html=1;points=[];align=center;fontSize=12;image=img/lib/azure2/general/Folder_Blank.svg;" vertex="1" parent="1">
          <mxGeometry x="1055" y="357.65" width="30" height="24.35" as="geometry" />
        </mxCell>
        <mxCell id="CiKUPNfviH01VdCJl_I1-37" style="edgeStyle=orthogonalEdgeStyle;rounded=0;orthogonalLoop=1;jettySize=auto;html=1;entryX=1;entryY=0.5;entryDx=0;entryDy=0;" edge="1" parent="1" source="CiKUPNfviH01VdCJl_I1-34" target="CiKUPNfviH01VdCJl_I1-27">
          <mxGeometry relative="1" as="geometry" />
        </mxCell>
        <mxCell id="CiKUPNfviH01VdCJl_I1-34" value="Transformation Layer Outbound" style="rounded=1;whiteSpace=wrap;html=1;verticalAlign=top;" vertex="1" parent="1">
          <mxGeometry x="1010" y="440" width="120" height="70" as="geometry" />
        </mxCell>
        <mxCell id="CiKUPNfviH01VdCJl_I1-35" value="" style="image;aspect=fixed;html=1;points=[];align=center;fontSize=12;image=img/lib/azure2/general/Folder_Blank.svg;" vertex="1" parent="1">
          <mxGeometry x="1055" y="477.65" width="30" height="24.35" as="geometry" />
        </mxCell>
        <mxCell id="CiKUPNfviH01VdCJl_I1-50" style="edgeStyle=orthogonalEdgeStyle;rounded=0;orthogonalLoop=1;jettySize=auto;html=1;entryX=1;entryY=0.5;entryDx=0;entryDy=0;" edge="1" parent="1" source="CiKUPNfviH01VdCJl_I1-42" target="CiKUPNfviH01VdCJl_I1-11">
          <mxGeometry relative="1" as="geometry" />
        </mxCell>
        <mxCell id="CiKUPNfviH01VdCJl_I1-51" style="edgeStyle=orthogonalEdgeStyle;rounded=0;orthogonalLoop=1;jettySize=auto;html=1;entryX=1;entryY=0.5;entryDx=0;entryDy=0;" edge="1" parent="1" source="CiKUPNfviH01VdCJl_I1-42" target="CiKUPNfviH01VdCJl_I1-9">
          <mxGeometry relative="1" as="geometry" />
        </mxCell>
        <mxCell id="CiKUPNfviH01VdCJl_I1-52" style="edgeStyle=orthogonalEdgeStyle;rounded=0;orthogonalLoop=1;jettySize=auto;html=1;entryX=1;entryY=0.5;entryDx=0;entryDy=0;" edge="1" parent="1" source="CiKUPNfviH01VdCJl_I1-42" target="CiKUPNfviH01VdCJl_I1-8">
          <mxGeometry relative="1" as="geometry" />
        </mxCell>
        <mxCell id="CiKUPNfviH01VdCJl_I1-53" style="edgeStyle=orthogonalEdgeStyle;rounded=0;orthogonalLoop=1;jettySize=auto;html=1;entryX=1;entryY=0.5;entryDx=0;entryDy=0;" edge="1" parent="1" source="CiKUPNfviH01VdCJl_I1-42" target="CiKUPNfviH01VdCJl_I1-12">
          <mxGeometry relative="1" as="geometry" />
        </mxCell>
        <mxCell id="CiKUPNfviH01VdCJl_I1-42" value="BizTalk" style="rounded=1;whiteSpace=wrap;html=1;verticalAlign=top;" vertex="1" parent="1">
          <mxGeometry x="810" y="780" width="120" height="70" as="geometry" />
        </mxCell>
        <mxCell id="CiKUPNfviH01VdCJl_I1-43" value="" style="verticalLabelPosition=bottom;html=1;verticalAlign=top;align=center;strokeColor=none;fillColor=#00BEF2;shape=mxgraph.azure.biztalk_services;aspect=fixed;" vertex="1" parent="1">
          <mxGeometry x="855" y="810" width="30" height="30" as="geometry" />
        </mxCell>
        <mxCell id="CiKUPNfviH01VdCJl_I1-44" style="edgeStyle=orthogonalEdgeStyle;rounded=0;orthogonalLoop=1;jettySize=auto;html=1;entryX=1;entryY=0.5;entryDx=0;entryDy=0;startArrow=classic;startFill=1;" edge="1" parent="1" source="CiKUPNfviH01VdCJl_I1-45" target="CiKUPNfviH01VdCJl_I1-42">
          <mxGeometry relative="1" as="geometry" />
        </mxCell>
        <mxCell id="CiKUPNfviH01VdCJl_I1-45" value="Transformation Layer Inbound" style="rounded=1;whiteSpace=wrap;html=1;verticalAlign=top;" vertex="1" parent="1">
          <mxGeometry x="1010" y="730" width="120" height="70" as="geometry" />
        </mxCell>
        <mxCell id="CiKUPNfviH01VdCJl_I1-46" value="" style="image;aspect=fixed;html=1;points=[];align=center;fontSize=12;image=img/lib/azure2/general/Folder_Blank.svg;" vertex="1" parent="1">
          <mxGeometry x="1055" y="767.65" width="30" height="24.35" as="geometry" />
        </mxCell>
        <mxCell id="CiKUPNfviH01VdCJl_I1-47" style="edgeStyle=orthogonalEdgeStyle;rounded=0;orthogonalLoop=1;jettySize=auto;html=1;entryX=1;entryY=0.5;entryDx=0;entryDy=0;" edge="1" parent="1" source="CiKUPNfviH01VdCJl_I1-48" target="CiKUPNfviH01VdCJl_I1-42">
          <mxGeometry relative="1" as="geometry" />
        </mxCell>
        <mxCell id="CiKUPNfviH01VdCJl_I1-48" value="Transformation Layer Outbound" style="rounded=1;whiteSpace=wrap;html=1;verticalAlign=top;" vertex="1" parent="1">
          <mxGeometry x="1010" y="850" width="120" height="70" as="geometry" />
        </mxCell>
        <mxCell id="CiKUPNfviH01VdCJl_I1-49" value="" style="image;aspect=fixed;html=1;points=[];align=center;fontSize=12;image=img/lib/azure2/general/Folder_Blank.svg;" vertex="1" parent="1">
          <mxGeometry x="1055" y="887.65" width="30" height="24.35" as="geometry" />
        </mxCell>
        <mxCell id="CiKUPNfviH01VdCJl_I1-55" value="File Transfer Tool polls Managed Gateway Siti Agri inbound folders every 10 minutes.&amp;nbsp; &lt;br&gt;&lt;br&gt;Files matching payment file mask are transferred to Payment Filter inbound location and deleted from the Managed Gateway.&lt;br&gt;&lt;br&gt;Access via FTP username and password with read/write permissions" style="text;html=1;strokeColor=none;fillColor=none;align=left;verticalAlign=middle;whiteSpace=wrap;rounded=0;" vertex="1" parent="1">
          <mxGeometry x="40" y="193.15" width="190" height="30" as="geometry" />
        </mxCell>
        <mxCell id="CiKUPNfviH01VdCJl_I1-56" value="BizTalk polls Managed Gateway inbound folders on a schedule varied by source system.&amp;nbsp;&amp;nbsp;&lt;br&gt;&lt;br&gt;Files matching payment file mask are transferred to Transformation Layer inbound location and deleted from the Managed Gateway.&lt;br&gt;&lt;br&gt;Return files are published to the Managed Gateway outbound folders.&lt;br&gt;&lt;br&gt;Access via FTP username and password with read/write permissions" style="text;html=1;strokeColor=none;fillColor=none;align=left;verticalAlign=middle;whiteSpace=wrap;rounded=0;" vertex="1" parent="1">
          <mxGeometry x="40" y="430" width="190" height="30" as="geometry" />
        </mxCell>
        <mxCell id="CiKUPNfviH01VdCJl_I1-57" value="BizTalk polls Callisto inbound folders on a schedule varied by source system.&amp;nbsp;&amp;nbsp;&lt;br style=&quot;border-color: var(--border-color);&quot;&gt;&lt;br style=&quot;border-color: var(--border-color);&quot;&gt;Files matching payment file mask are transferred to Transformation Layer inbound location and deleted from the Managed Gateway.&lt;br style=&quot;border-color: var(--border-color);&quot;&gt;&lt;br style=&quot;border-color: var(--border-color);&quot;&gt;Return files are published to the Managed Gateway outbound folders.&lt;br style=&quot;border-color: var(--border-color);&quot;&gt;&lt;br style=&quot;border-color: var(--border-color);&quot;&gt;Access via SFTP username and password with read/write permissions" style="text;html=1;strokeColor=none;fillColor=none;align=left;verticalAlign=middle;whiteSpace=wrap;rounded=0;" vertex="1" parent="1">
          <mxGeometry x="50" y="792" width="190" height="30" as="geometry" />
        </mxCell>
        <mxCell id="CiKUPNfviH01VdCJl_I1-59" value="Managed Gateway / Callisto / FCP Environment Mapping" style="text;html=1;strokeColor=none;fillColor=none;align=left;verticalAlign=middle;whiteSpace=wrap;rounded=0;fontStyle=1" vertex="1" parent="1">
          <mxGeometry y="2520" width="400" height="30" as="geometry" />
        </mxCell>
        <mxCell id="CiKUPNfviH01VdCJl_I1-60" value="Payment Filter / Transformation Layer" style="text;html=1;strokeColor=none;fillColor=none;align=left;verticalAlign=middle;whiteSpace=wrap;rounded=0;fontStyle=1" vertex="1" parent="1">
          <mxGeometry x="50" y="50" width="280" height="30" as="geometry" />
        </mxCell>
        <mxCell id="CiKUPNfviH01VdCJl_I1-269" style="edgeStyle=orthogonalEdgeStyle;rounded=0;orthogonalLoop=1;jettySize=auto;html=1;" edge="1" parent="1" source="CiKUPNfviH01VdCJl_I1-61" target="CiKUPNfviH01VdCJl_I1-264">
          <mxGeometry relative="1" as="geometry" />
        </mxCell>
        <mxCell id="CiKUPNfviH01VdCJl_I1-61" value="Managed Gateway&lt;br&gt;hgmg-testzone" style="rounded=1;whiteSpace=wrap;html=1;" vertex="1" parent="1">
          <mxGeometry x="20" y="2560" width="120" height="60" as="geometry" />
        </mxCell>
        <mxCell id="CiKUPNfviH01VdCJl_I1-276" style="edgeStyle=orthogonalEdgeStyle;rounded=0;orthogonalLoop=1;jettySize=auto;html=1;" edge="1" parent="1" source="CiKUPNfviH01VdCJl_I1-62" target="CiKUPNfviH01VdCJl_I1-266">
          <mxGeometry relative="1" as="geometry" />
        </mxCell>
        <mxCell id="CiKUPNfviH01VdCJl_I1-62" value="Managed Gateway&lt;br&gt;hgmg-livezone" style="rounded=1;whiteSpace=wrap;html=1;" vertex="1" parent="1">
          <mxGeometry x="20" y="2720" width="120" height="60" as="geometry" />
        </mxCell>
        <mxCell id="CiKUPNfviH01VdCJl_I1-157" value="Managed Gateway" style="rounded=1;whiteSpace=wrap;html=1;verticalAlign=top;" vertex="1" parent="1">
          <mxGeometry x="250" y="1100" width="400" height="240" as="geometry" />
        </mxCell>
        <mxCell id="CiKUPNfviH01VdCJl_I1-160" value="SITI Agri Inbound&lt;br&gt;&lt;br&gt;/opt/cap_prod_data/DAX/out/int_725/" style="rounded=1;whiteSpace=wrap;html=1;" vertex="1" parent="1">
          <mxGeometry x="277.5" y="1170" width="345" height="81" as="geometry" />
        </mxCell>
        <mxCell id="CiKUPNfviH01VdCJl_I1-168" value="" style="sketch=0;pointerEvents=1;shadow=0;dashed=0;html=1;strokeColor=none;fillColor=#505050;labelPosition=center;verticalLabelPosition=bottom;verticalAlign=top;outlineConnect=0;align=center;shape=mxgraph.office.services.network_file_share_service;aspect=fixed;" vertex="1" parent="1">
          <mxGeometry x="435" y="1130" width="30" height="28.91" as="geometry" />
        </mxCell>
        <mxCell id="CiKUPNfviH01VdCJl_I1-170" style="edgeStyle=orthogonalEdgeStyle;rounded=0;orthogonalLoop=1;jettySize=auto;html=1;" edge="1" parent="1" source="CiKUPNfviH01VdCJl_I1-160" target="CiKUPNfviH01VdCJl_I1-172">
          <mxGeometry relative="1" as="geometry" />
        </mxCell>
        <mxCell id="CiKUPNfviH01VdCJl_I1-172" value="Payment Hub Inbound" style="rounded=1;whiteSpace=wrap;html=1;verticalAlign=top;" vertex="1" parent="1">
          <mxGeometry x="810" y="1175.5" width="120" height="70" as="geometry" />
        </mxCell>
        <mxCell id="CiKUPNfviH01VdCJl_I1-200" value="ATOS created cron jobs for each payment file publish file to Payment Hub Azure Blob Storage inbound location with SAS key" style="text;html=1;strokeColor=none;fillColor=none;align=left;verticalAlign=middle;whiteSpace=wrap;rounded=0;" vertex="1" parent="1">
          <mxGeometry x="40" y="1183.15" width="190" height="30" as="geometry" />
        </mxCell>
        <mxCell id="CiKUPNfviH01VdCJl_I1-203" value="Payment Hub - Current" style="text;html=1;strokeColor=none;fillColor=none;align=left;verticalAlign=middle;whiteSpace=wrap;rounded=0;fontStyle=1" vertex="1" parent="1">
          <mxGeometry x="50" y="1040" width="280" height="30" as="geometry" />
        </mxCell>
        <mxCell id="CiKUPNfviH01VdCJl_I1-204" value="" style="verticalLabelPosition=bottom;html=1;verticalAlign=top;align=center;strokeColor=none;fillColor=#00BEF2;shape=mxgraph.azure.storage_blob;aspect=fixed;" vertex="1" parent="1">
          <mxGeometry x="855" y="1214" width="30" height="27" as="geometry" />
        </mxCell>
        <mxCell id="CiKUPNfviH01VdCJl_I1-205" value="SFI Pilot Cron Script" style="sketch=0;pointerEvents=1;shadow=0;dashed=0;html=1;strokeColor=none;fillColor=#505050;labelPosition=center;verticalLabelPosition=bottom;verticalAlign=top;outlineConnect=0;align=center;shape=mxgraph.office.concepts.script;" vertex="1" parent="1">
          <mxGeometry x="320" y="1260" width="33" height="30" as="geometry" />
        </mxCell>
        <mxCell id="CiKUPNfviH01VdCJl_I1-206" value="SFI Cron Script" style="sketch=0;pointerEvents=1;shadow=0;dashed=0;html=1;strokeColor=none;fillColor=#505050;labelPosition=center;verticalLabelPosition=bottom;verticalAlign=top;outlineConnect=0;align=center;shape=mxgraph.office.concepts.script;" vertex="1" parent="1">
          <mxGeometry x="435" y="1260" width="33" height="30" as="geometry" />
        </mxCell>
        <mxCell id="CiKUPNfviH01VdCJl_I1-207" value="Lump Sums Cron Script" style="sketch=0;pointerEvents=1;shadow=0;dashed=0;html=1;strokeColor=none;fillColor=#505050;labelPosition=center;verticalLabelPosition=bottom;verticalAlign=top;outlineConnect=0;align=center;shape=mxgraph.office.concepts.script;" vertex="1" parent="1">
          <mxGeometry x="550" y="1260" width="33" height="30" as="geometry" />
        </mxCell>
        <mxCell id="CiKUPNfviH01VdCJl_I1-208" value="Managed Gateway" style="rounded=1;whiteSpace=wrap;html=1;verticalAlign=top;" vertex="1" parent="1">
          <mxGeometry x="250" y="1460" width="400" height="460" as="geometry" />
        </mxCell>
        <mxCell id="CiKUPNfviH01VdCJl_I1-209" value="Genesis Inbound&lt;br&gt;&lt;br&gt;/opt/cap_prod_data/genesis/in/int_072/" style="rounded=1;whiteSpace=wrap;html=1;" vertex="1" parent="1">
          <mxGeometry x="277.5" y="1630" width="345" height="50" as="geometry" />
        </mxCell>
        <mxCell id="CiKUPNfviH01VdCJl_I1-210" value="GLOS Inbound&lt;br&gt;&lt;br&gt;/opt/cap_prod_data/glos/in/int_230/" style="rounded=1;whiteSpace=wrap;html=1;" vertex="1" parent="1">
          <mxGeometry x="277.5" y="1770" width="345" height="50" as="geometry" />
        </mxCell>
        <mxCell id="CiKUPNfviH01VdCJl_I1-211" value="SITI Agri Inbound&lt;br&gt;&lt;br&gt;/opt/cap_prod_data/DAX/out/int_539/&lt;br&gt;/opt/cap_prod_data/DAX/out/int_716/&lt;br&gt;/opt/cap_prod_data/DAX/out/int_725/" style="rounded=1;whiteSpace=wrap;html=1;" vertex="1" parent="1">
          <mxGeometry x="277.5" y="1530" width="345" height="81" as="geometry" />
        </mxCell>
        <mxCell id="CiKUPNfviH01VdCJl_I1-212" value="Genesis Outbound&lt;br&gt;&lt;br&gt;/opt/cap_prod_data/genesis/out/int_073/" style="rounded=1;whiteSpace=wrap;html=1;" vertex="1" parent="1">
          <mxGeometry x="277.5" y="1700" width="345" height="50" as="geometry" />
        </mxCell>
        <mxCell id="CiKUPNfviH01VdCJl_I1-213" value="GLOS Outbound&lt;br&gt;&lt;br&gt;/opt/cap_prod_data/glos/out/int_231/" style="rounded=1;whiteSpace=wrap;html=1;" vertex="1" parent="1">
          <mxGeometry x="277.5" y="1840" width="345" height="50" as="geometry" />
        </mxCell>
        <mxCell id="CiKUPNfviH01VdCJl_I1-214" value="Callisto" style="rounded=1;whiteSpace=wrap;html=1;verticalAlign=top;" vertex="1" parent="1">
          <mxGeometry x="250" y="1970" width="400" height="350" as="geometry" />
        </mxCell>
        <mxCell id="CiKUPNfviH01VdCJl_I1-215" value="IMPS Inbound&lt;br&gt;&lt;br&gt;/app/DAX_interface/CFI/outbound/" style="rounded=1;whiteSpace=wrap;html=1;" vertex="1" parent="1">
          <mxGeometry x="277.5" y="2040" width="345" height="50" as="geometry" />
        </mxCell>
        <mxCell id="CiKUPNfviH01VdCJl_I1-216" value="DPS Inbound&lt;br&gt;&lt;br&gt;/app/DAX_interface/DPS/outbound/" style="rounded=1;whiteSpace=wrap;html=1;" vertex="1" parent="1">
          <mxGeometry x="277.5" y="2180" width="345" height="50" as="geometry" />
        </mxCell>
        <mxCell id="CiKUPNfviH01VdCJl_I1-217" value="IMPS Outbound&lt;br&gt;&lt;br&gt;/app/DAX_interface/CFI/inbound/" style="rounded=1;whiteSpace=wrap;html=1;" vertex="1" parent="1">
          <mxGeometry x="277.5" y="2110" width="345" height="50" as="geometry" />
        </mxCell>
        <mxCell id="CiKUPNfviH01VdCJl_I1-218" value="DPS Outbound&lt;br&gt;&lt;br&gt;/app/DAX_interface/DPS/inbound" style="rounded=1;whiteSpace=wrap;html=1;" vertex="1" parent="1">
          <mxGeometry x="277.5" y="2250" width="345" height="50" as="geometry" />
        </mxCell>
        <mxCell id="CiKUPNfviH01VdCJl_I1-219" value="" style="sketch=0;pointerEvents=1;shadow=0;dashed=0;html=1;strokeColor=none;fillColor=#505050;labelPosition=center;verticalLabelPosition=bottom;verticalAlign=top;outlineConnect=0;align=center;shape=mxgraph.office.services.network_file_share_service;aspect=fixed;" vertex="1" parent="1">
          <mxGeometry x="435" y="1490" width="30" height="28.91" as="geometry" />
        </mxCell>
        <mxCell id="CiKUPNfviH01VdCJl_I1-220" value="" style="sketch=0;pointerEvents=1;shadow=0;dashed=0;html=1;strokeColor=none;fillColor=#505050;labelPosition=center;verticalLabelPosition=bottom;verticalAlign=top;outlineConnect=0;align=center;shape=mxgraph.office.services.network_file_share_service;aspect=fixed;" vertex="1" parent="1">
          <mxGeometry x="435" y="2000" width="30" height="28.91" as="geometry" />
        </mxCell>
        <mxCell id="CiKUPNfviH01VdCJl_I1-221" style="edgeStyle=orthogonalEdgeStyle;rounded=0;orthogonalLoop=1;jettySize=auto;html=1;exitX=0;exitY=0.5;exitDx=0;exitDy=0;" edge="1" parent="1" source="CiKUPNfviH01VdCJl_I1-259" target="CiKUPNfviH01VdCJl_I1-211">
          <mxGeometry relative="1" as="geometry">
            <mxPoint x="810" y="1570.5" as="sourcePoint" />
            <Array as="points">
              <mxPoint x="760" y="1945" />
              <mxPoint x="760" y="1570" />
            </Array>
          </mxGeometry>
        </mxCell>
        <mxCell id="CiKUPNfviH01VdCJl_I1-227" style="edgeStyle=orthogonalEdgeStyle;rounded=0;orthogonalLoop=1;jettySize=auto;html=1;entryX=1;entryY=0.5;entryDx=0;entryDy=0;exitX=0;exitY=0.5;exitDx=0;exitDy=0;" edge="1" parent="1" source="CiKUPNfviH01VdCJl_I1-259" target="CiKUPNfviH01VdCJl_I1-209">
          <mxGeometry relative="1" as="geometry">
            <mxPoint x="810" y="1755" as="sourcePoint" />
          </mxGeometry>
        </mxCell>
        <mxCell id="CiKUPNfviH01VdCJl_I1-228" style="edgeStyle=orthogonalEdgeStyle;rounded=0;orthogonalLoop=1;jettySize=auto;html=1;entryX=1;entryY=0.5;entryDx=0;entryDy=0;exitX=0;exitY=0.5;exitDx=0;exitDy=0;" edge="1" parent="1" source="CiKUPNfviH01VdCJl_I1-259" target="CiKUPNfviH01VdCJl_I1-212">
          <mxGeometry relative="1" as="geometry">
            <mxPoint x="810" y="1755" as="sourcePoint" />
          </mxGeometry>
        </mxCell>
        <mxCell id="CiKUPNfviH01VdCJl_I1-229" style="edgeStyle=orthogonalEdgeStyle;rounded=0;orthogonalLoop=1;jettySize=auto;html=1;entryX=1;entryY=0.5;entryDx=0;entryDy=0;exitX=0;exitY=0.5;exitDx=0;exitDy=0;" edge="1" parent="1" source="CiKUPNfviH01VdCJl_I1-259" target="CiKUPNfviH01VdCJl_I1-210">
          <mxGeometry relative="1" as="geometry">
            <mxPoint x="810" y="1755" as="sourcePoint" />
          </mxGeometry>
        </mxCell>
        <mxCell id="CiKUPNfviH01VdCJl_I1-230" style="edgeStyle=orthogonalEdgeStyle;rounded=0;orthogonalLoop=1;jettySize=auto;html=1;entryX=1;entryY=0.5;entryDx=0;entryDy=0;exitX=0;exitY=0.5;exitDx=0;exitDy=0;" edge="1" parent="1" source="CiKUPNfviH01VdCJl_I1-259" target="CiKUPNfviH01VdCJl_I1-213">
          <mxGeometry relative="1" as="geometry">
            <mxPoint x="810" y="1755" as="sourcePoint" />
          </mxGeometry>
        </mxCell>
        <mxCell id="CiKUPNfviH01VdCJl_I1-239" style="edgeStyle=orthogonalEdgeStyle;rounded=0;orthogonalLoop=1;jettySize=auto;html=1;entryX=1;entryY=0.5;entryDx=0;entryDy=0;exitX=-0.05;exitY=0.506;exitDx=0;exitDy=0;exitPerimeter=0;" edge="1" parent="1" source="CiKUPNfviH01VdCJl_I1-259" target="CiKUPNfviH01VdCJl_I1-217">
          <mxGeometry relative="1" as="geometry">
            <mxPoint x="810" y="2165" as="sourcePoint" />
          </mxGeometry>
        </mxCell>
        <mxCell id="CiKUPNfviH01VdCJl_I1-240" style="edgeStyle=orthogonalEdgeStyle;rounded=0;orthogonalLoop=1;jettySize=auto;html=1;entryX=1;entryY=0.5;entryDx=0;entryDy=0;exitX=0;exitY=0.5;exitDx=0;exitDy=0;" edge="1" parent="1" source="CiKUPNfviH01VdCJl_I1-259" target="CiKUPNfviH01VdCJl_I1-216">
          <mxGeometry relative="1" as="geometry">
            <mxPoint x="810" y="2165" as="sourcePoint" />
          </mxGeometry>
        </mxCell>
        <mxCell id="CiKUPNfviH01VdCJl_I1-241" style="edgeStyle=orthogonalEdgeStyle;rounded=0;orthogonalLoop=1;jettySize=auto;html=1;entryX=1;entryY=0.5;entryDx=0;entryDy=0;exitX=0;exitY=0.5;exitDx=0;exitDy=0;" edge="1" parent="1" source="CiKUPNfviH01VdCJl_I1-259" target="CiKUPNfviH01VdCJl_I1-215">
          <mxGeometry relative="1" as="geometry">
            <mxPoint x="810" y="2165" as="sourcePoint" />
          </mxGeometry>
        </mxCell>
        <mxCell id="CiKUPNfviH01VdCJl_I1-242" style="edgeStyle=orthogonalEdgeStyle;rounded=0;orthogonalLoop=1;jettySize=auto;html=1;entryX=1;entryY=0.5;entryDx=0;entryDy=0;exitX=0;exitY=0.5;exitDx=0;exitDy=0;" edge="1" parent="1" source="CiKUPNfviH01VdCJl_I1-259" target="CiKUPNfviH01VdCJl_I1-218">
          <mxGeometry relative="1" as="geometry">
            <mxPoint x="810" y="2165" as="sourcePoint" />
          </mxGeometry>
        </mxCell>
        <mxCell id="CiKUPNfviH01VdCJl_I1-251" value="Payment Gateway service polls inbound Managed Gateway and Callisto servers.&lt;br&gt;&lt;br&gt;Files matching payment mask are transferred to Payment Hub inbound.&lt;br&gt;&lt;br&gt;Return files are published to Managed Gateway and Callisto outbound.&lt;br&gt;&lt;br&gt;Access via SFTP with read write permissions&lt;br&gt;&lt;br&gt;The Payment Gateway runs in Azure Kubernetes Service.&lt;br&gt;&lt;br&gt;Both Managed Gateway and Callisto will need to allow traffic from AKS&lt;br&gt;&lt;br&gt;Payment Gateway will need a username for access to both servers.&lt;br&gt;&lt;br&gt;Payment Gateway can authenticate with either SSH key or password.&lt;br&gt;&lt;br&gt;Username provided will need read and write access to all listed directories.&lt;br&gt;&lt;br&gt;&lt;b&gt;Note: &lt;/b&gt;that for Managed Gateway non-production (hgmg-testzone) the &lt;b&gt;cap_prod_data &lt;/b&gt;is named &lt;b&gt;cap_test_data&lt;/b&gt;" style="text;html=1;strokeColor=none;fillColor=none;align=left;verticalAlign=middle;whiteSpace=wrap;rounded=0;" vertex="1" parent="1">
          <mxGeometry x="40" y="1740" width="190" height="30" as="geometry" />
        </mxCell>
        <mxCell id="CiKUPNfviH01VdCJl_I1-254" value="Payment Hub - Planned" style="text;html=1;strokeColor=none;fillColor=none;align=left;verticalAlign=middle;whiteSpace=wrap;rounded=0;fontStyle=1" vertex="1" parent="1">
          <mxGeometry x="50" y="1400" width="280" height="30" as="geometry" />
        </mxCell>
        <mxCell id="CiKUPNfviH01VdCJl_I1-255" value="Payment Hub Inbound" style="rounded=1;whiteSpace=wrap;html=1;verticalAlign=top;" vertex="1" parent="1">
          <mxGeometry x="1100" y="1860" width="120" height="70" as="geometry" />
        </mxCell>
        <mxCell id="CiKUPNfviH01VdCJl_I1-256" value="" style="verticalLabelPosition=bottom;html=1;verticalAlign=top;align=center;strokeColor=none;fillColor=#00BEF2;shape=mxgraph.azure.storage_blob;aspect=fixed;" vertex="1" parent="1">
          <mxGeometry x="1145" y="1898.5" width="30" height="27" as="geometry" />
        </mxCell>
        <mxCell id="CiKUPNfviH01VdCJl_I1-257" value="Payment Hub Outbound" style="rounded=1;whiteSpace=wrap;html=1;verticalAlign=top;" vertex="1" parent="1">
          <mxGeometry x="1100" y="1971" width="120" height="70" as="geometry" />
        </mxCell>
        <mxCell id="CiKUPNfviH01VdCJl_I1-258" value="" style="verticalLabelPosition=bottom;html=1;verticalAlign=top;align=center;strokeColor=none;fillColor=#00BEF2;shape=mxgraph.azure.storage_blob;aspect=fixed;" vertex="1" parent="1">
          <mxGeometry x="1145" y="2009.5" width="30" height="27" as="geometry" />
        </mxCell>
        <mxCell id="CiKUPNfviH01VdCJl_I1-262" style="edgeStyle=orthogonalEdgeStyle;rounded=0;orthogonalLoop=1;jettySize=auto;html=1;" edge="1" parent="1" source="CiKUPNfviH01VdCJl_I1-259" target="CiKUPNfviH01VdCJl_I1-255">
          <mxGeometry relative="1" as="geometry" />
        </mxCell>
        <mxCell id="CiKUPNfviH01VdCJl_I1-263" style="edgeStyle=orthogonalEdgeStyle;rounded=0;orthogonalLoop=1;jettySize=auto;html=1;" edge="1" parent="1" source="CiKUPNfviH01VdCJl_I1-259" target="CiKUPNfviH01VdCJl_I1-257">
          <mxGeometry relative="1" as="geometry" />
        </mxCell>
        <mxCell id="CiKUPNfviH01VdCJl_I1-259" value="Payment Gateway" style="rounded=1;whiteSpace=wrap;html=1;verticalAlign=top;" vertex="1" parent="1">
          <mxGeometry x="900" y="1910" width="120" height="70" as="geometry" />
        </mxCell>
        <mxCell id="CiKUPNfviH01VdCJl_I1-261" value="" style="outlineConnect=0;dashed=0;verticalLabelPosition=bottom;verticalAlign=top;align=center;html=1;shape=mxgraph.aws3.android;fillColor=#8CC64F;gradientColor=none;aspect=fixed;" vertex="1" parent="1">
          <mxGeometry x="945" y="1940" width="30" height="34.29" as="geometry" />
        </mxCell>
        <mxCell id="CiKUPNfviH01VdCJl_I1-264" value="FCP Development/Test&lt;br&gt;&lt;br&gt;DefraCloudDev" style="rounded=1;whiteSpace=wrap;html=1;" vertex="1" parent="1">
          <mxGeometry x="276.5" y="2560" width="120" height="60" as="geometry" />
        </mxCell>
        <mxCell id="CiKUPNfviH01VdCJl_I1-265" value="FCP PreProd&lt;br&gt;&lt;br&gt;DefraCloudPreProd" style="rounded=1;whiteSpace=wrap;html=1;" vertex="1" parent="1">
          <mxGeometry x="276.5" y="2640" width="120" height="60" as="geometry" />
        </mxCell>
        <mxCell id="CiKUPNfviH01VdCJl_I1-266" value="FCP Production&lt;br&gt;&lt;br&gt;DefraCloudProd" style="rounded=1;whiteSpace=wrap;html=1;" vertex="1" parent="1">
          <mxGeometry x="280" y="2720" width="120" height="60" as="geometry" />
        </mxCell>
        <mxCell id="CiKUPNfviH01VdCJl_I1-270" style="edgeStyle=orthogonalEdgeStyle;rounded=0;orthogonalLoop=1;jettySize=auto;html=1;entryX=1;entryY=0.5;entryDx=0;entryDy=0;" edge="1" parent="1" source="CiKUPNfviH01VdCJl_I1-267" target="CiKUPNfviH01VdCJl_I1-264">
          <mxGeometry relative="1" as="geometry" />
        </mxCell>
        <mxCell id="CiKUPNfviH01VdCJl_I1-267" value="Callisto&lt;br&gt;DC1" style="rounded=1;whiteSpace=wrap;html=1;" vertex="1" parent="1">
          <mxGeometry x="520" y="2560" width="120" height="60" as="geometry" />
        </mxCell>
        <mxCell id="CiKUPNfviH01VdCJl_I1-275" style="edgeStyle=orthogonalEdgeStyle;rounded=0;orthogonalLoop=1;jettySize=auto;html=1;" edge="1" parent="1" source="CiKUPNfviH01VdCJl_I1-268" target="CiKUPNfviH01VdCJl_I1-266">
          <mxGeometry relative="1" as="geometry" />
        </mxCell>
        <mxCell id="CiKUPNfviH01VdCJl_I1-268" value="Callisto&lt;br&gt;DC2" style="rounded=1;whiteSpace=wrap;html=1;" vertex="1" parent="1">
          <mxGeometry x="520" y="2720" width="120" height="60" as="geometry" />
        </mxCell>
        <mxCell id="CiKUPNfviH01VdCJl_I1-272" style="edgeStyle=orthogonalEdgeStyle;rounded=0;orthogonalLoop=1;jettySize=auto;html=1;" edge="1" parent="1" source="CiKUPNfviH01VdCJl_I1-271" target="CiKUPNfviH01VdCJl_I1-265">
          <mxGeometry relative="1" as="geometry" />
        </mxCell>
        <mxCell id="CiKUPNfviH01VdCJl_I1-271" value="Managed Gateway&lt;br&gt;hgmg-testzone" style="rounded=1;whiteSpace=wrap;html=1;" vertex="1" parent="1">
          <mxGeometry x="20" y="2640" width="120" height="60" as="geometry" />
        </mxCell>
        <mxCell id="CiKUPNfviH01VdCJl_I1-274" style="edgeStyle=orthogonalEdgeStyle;rounded=0;orthogonalLoop=1;jettySize=auto;html=1;" edge="1" parent="1" source="CiKUPNfviH01VdCJl_I1-273" target="CiKUPNfviH01VdCJl_I1-265">
          <mxGeometry relative="1" as="geometry" />
        </mxCell>
        <mxCell id="CiKUPNfviH01VdCJl_I1-273" value="Callisto&lt;br&gt;DC1" style="rounded=1;whiteSpace=wrap;html=1;" vertex="1" parent="1">
          <mxGeometry x="520" y="2640" width="120" height="60" as="geometry" />
        </mxCell>
      </root>
    </mxGraphModel>
  </diagram>
</mxfile>
